<svg xmlns="http://www.w3.org/2000/svg" width="240" height="144" viewBox="0 0 240 144"><path d="M91.18,41.7l-49.48,49.48c-.12.12-.28.18-.44.18s-.32-.06-.44-.18c-.24-.24-.24-.64,0-.88l49.48-49.48c.24-.24.64-.24.88,0,.24.24.24.64,0,.88ZM82.9,37.1c-.24-.24-.64-.24-.88,0l-44.91,44.91c-.24.24-.24.64,0,.88.12.12.28.18.44.18s.32-.06.44-.18l44.91-44.91c.24-.24.24-.64,0-.88ZM72.44,35.56c-.24-.24-.64-.24-.88,0l-36,36c-.24.24-.24.64,0,.88.12.12.28.18.44.18s.32-.06.44-.18l36-36c.24-.24.24-.64,0-.88ZM39.5,57.12c.16,0,.32-.06.44-.18l17-17c.24-.24.24-.64,0-.88-.24-.24-.64-.24-.88,0l-17,17c-.24.24-.24.64,0,.88.12.12.28.18.44.18ZM89.26,91.99c.32,0,.64-.12.88-.37l49.48-49.48c.49-.49.49-1.28,0-1.77s-1.28-.49-1.77,0l-49.48,49.48c-.32.32-.41.78-.31,1.19l-16.51,16.51c-.24.24-.24.64,0,.88.12.12.28.18.44.18s.32-.06.44-.18l16.51-16.51c.1.03.2.06.31.06ZM85.54,83.71c.32,0,.64-.12.88-.37l44.91-44.91c.49-.49.49-1.28,0-1.77s-1.28-.49-1.77,0l-44.91,44.91c-.32.32-.41.78-.31,1.19l-23.25,23.25c-.24.24-.24.64,0,.88.12.12.28.18.44.18s.32-.06.44-.18l23.25-23.25c.1.03.2.06.31.06ZM84,73.25c.32,0,.64-.12.88-.37l36-36c.49-.49.49-1.28,0-1.77s-1.28-.49-1.77,0l-36,36c-.32.32-.41.78-.31,1.19l-29.99,29.99c-.24.24-.24.64,0,.88.12.12.28.18.44.18s.32-.06.44-.18l29.99-29.99c.1.03.2.06.31.06ZM87.5,57.75c.32,0,.64-.12.88-.37l17-17c.49-.49.49-1.28,0-1.77s-1.28-.49-1.77,0l-17,17c-.32.32-.41.78-.31,1.19l-40.21,40.21c-.24.24-.24.64,0,.88.12.12.28.18.44.18s.32-.06.44-.18l40.21-40.21c.1.03.2.06.31.06ZM205.77,70.23c-.98-.98-2.56-.98-3.54,0l-36,36c-.98.98-.98,2.56,0,3.54.49.49,1.13.73,1.77.73s1.28-.24,1.77-.73l36-36c.98-.98.98-2.56,0-3.54ZM204.22,59.78c-.98-.98-2.56-.98-3.54,0l-44.91,44.91c-.98.98-.98,2.56,0,3.54.49.49,1.13.73,1.77.73s1.28-.24,1.77-.73l44.91-44.91c.98-.98.98-2.56,0-3.54ZM198.73,85.73l-17,17c-.98.98-.98,2.56,0,3.54.49.49,1.13.73,1.77.73s1.28-.24,1.77-.73l17-17c.98-.98.98-2.56,0-3.54s-2.56-.98-3.54,0ZM200.51,51.49c-.98-.98-2.56-.98-3.54,0l-49.48,49.48c-.98.98-.98,2.56,0,3.54.49.49,1.13.73,1.77.73s1.28-.24,1.77-.73l49.48-49.48c.98-.98.98-2.56,0-3.54ZM195.22,44.78c-.98-.98-2.56-.98-3.54,0l-50.91,50.91c-.65.65-.82,1.55-.61,2.38l-5.55,5.55c-.49.49-.49,1.28,0,1.77.24.24.56.37.88.37s.64-.12.88-.37l5.55-5.55c.2.05.4.12.61.12.64,0,1.28-.24,1.77-.73l50.91-50.91c.98-.98.98-2.56,0-3.54ZM137.26,93.24c.64,0,1.28-.24,1.77-.73l49.48-49.48c.98-.98.98-2.56,0-3.54s-2.56-.98-3.54,0l-49.48,49.48c-.65.65-.82,1.55-.61,2.38l-15.76,15.76c-.49.49-.49,1.28,0,1.77.24.24.56.37.88.37s.64-.12.88-.37l15.76-15.76c.2.05.4.12.61.12ZM133.54,84.96c.64,0,1.28-.24,1.77-.73l44.91-44.91c.98-.98.98-2.56,0-3.54s-2.56-.98-3.54,0l-44.91,44.91c-.65.65-.82,1.55-.61,2.38l-22.5,22.5c-.49.49-.49,1.28,0,1.77.24.24.56.37.88.37s.64-.12.88-.37l22.5-22.5c.2.05.4.12.61.12ZM132,74.5c.64,0,1.28-.24,1.77-.73l36-36c.98-.98.98-2.56,0-3.54s-2.56-.98-3.54,0l-36,36c-.65.65-.82,1.55-.61,2.38l-29.24,29.24c-.49.49-.49,1.28,0,1.77.24.24.56.37.88.37s.64-.12.88-.37l29.24-29.24c.2.05.4.12.61.12ZM135.5,59c.64,0,1.28-.24,1.77-.73l17-17c.98-.98.98-2.56,0-3.54s-2.56-.98-3.54,0l-17,17c-.65.65-.82,1.55-.61,2.38l-39.46,39.46c-.32.32-.41.78-.31,1.19l-6.3,6.3c-.24.24-.24.64,0,.88.12.12.28.18.44.18s.32-.06.44-.18l6.3-6.3c.1.03.2.06.31.06.32,0,.64-.12.88-.37l39.46-39.46c.2.05.4.12.61.12Z"/></svg>