<svg xmlns="http://www.w3.org/2000/svg" width="456" height="240" viewBox="0 0 456 240"><path d="M152.06,183.06l-17,17c-.24.24-.24.64,0,.88.12.12.28.18.44.18s.32-.06.44-.18l17-17c.24-.24.24-.64,0-.88-.24-.25-.64-.25-.88,0ZM154.9,157.1c-.24-.25-.64-.25-.88,0l-44.91,44.91c-.24.24-.24.64,0,.88.12.12.28.18.44.18s.32-.06.44-.18l44.91-44.91c.24-.24.24-.64,0-.88ZM151.18,148.82c-.24-.25-.64-.25-.88,0l-49.48,49.48c-.24.24-.24.64,0,.88.12.12.28.18.44.18s.32-.06.44-.18l49.48-49.48c.24-.24.24-.64,0-.88ZM87.06,152.94c.12.12.28.18.44.18s.32-.06.44-.18l6.3-6.3c.1.03.2.06.31.06.32,0,.64-.12.88-.37l39.46-39.46c.2.05.4.12.61.12.64,0,1.28-.24,1.77-.73l17-17c.98-.98.98-2.56,0-3.54s-2.56-.98-3.54,0l-17,17c-.65.65-.82,1.55-.61,2.38l-39.46,39.46c-.32.32-.41.78-.31,1.19l-6.3,6.3c-.24.24-.24.64,0,.88ZM155.56,167.56l-36,36c-.24.24-.24.64,0,.88.12.12.28.18.44.18s.32-.06.44-.18l36-36c.24-.24.24-.64,0-.88-.24-.25-.64-.25-.88,0ZM101.26,151.99c.32,0,.64-.12.88-.37l49.48-49.48c.49-.49.49-1.28,0-1.77-.49-.49-1.28-.49-1.77,0l-49.48,49.48c-.32.32-.41.78-.31,1.19l-16.51,16.51c-.24.24-.24.64,0,.88.12.12.28.18.44.18s.32-.06.44-.18l16.51-16.51c.1.03.2.06.31.06ZM84.88,120.88l15.76-15.76c.2.05.4.12.61.12.64,0,1.28-.24,1.77-.73l49.48-49.48c.98-.98.98-2.56,0-3.54s-2.56-.98-3.54,0l-49.48,49.48c-.65.65-.82,1.55-.61,2.38l-15.76,15.76c-.49.49-.49,1.28,0,1.77.24.24.56.37.88.37s.64-.12.88-.37ZM109.54,155.71c.32,0,.64-.12.88-.37l44.91-44.91c.49-.49.49-1.28,0-1.77s-1.28-.49-1.77,0l-44.91,44.91c-.32.32-.41.78-.31,1.19l-23.25,23.25c-.24.24-.24.64,0,.88.12.12.28.18.44.18s.32-.06.44-.18l23.25-23.25c.1.03.2.06.31.06ZM155.12,119.12l-36,36c-.32.32-.41.78-.31,1.19l-29.99,29.99c-.24.24-.24.64,0,.88.12.12.28.18.44.18s.32-.06.44-.18l29.99-29.99c.1.03.2.06.31.06.32,0,.64-.12.88-.37l36-36c.49-.49.49-1.28,0-1.77s-1.28-.49-1.77,0ZM135.5,153.75c.32,0,.64-.12.88-.37l17-17c.49-.49.49-1.28,0-1.77s-1.28-.49-1.77,0l-17,17c-.32.32-.41.78-.31,1.19l-40.21,40.21c-.24.24-.24.64,0,.88.12.12.28.18.44.18s.32-.06.44-.18l40.21-40.21c.1.03.2.06.31.06ZM107.78,104.69c-.65.65-.82,1.55-.61,2.38l-22.5,22.5c-.49.49-.49,1.28,0,1.77.24.24.56.37.88.37s.64-.12.88-.37l22.5-22.5c.2.05.4.12.61.12.64,0,1.28-.24,1.77-.73l44.91-44.91c.98-.98.98-2.56,0-3.54s-2.56-.98-3.54,0l-44.91,44.91ZM92.16,98.07l-5.55,5.55c-.49.49-.49,1.28,0,1.77.24.24.56.37.88.37s.64-.12.88-.37l5.55-5.55c.2.05.4.12.61.12.64,0,1.28-.24,1.77-.73l50.91-50.91c.98-.98.98-2.56,0-3.54s-2.56-.98-3.54,0l-50.91,50.91c-.65.65-.82,1.55-.61,2.38ZM87.49,92.51c.49.49,1.13.73,1.77.73s1.28-.24,1.77-.73l49.48-49.48c.98-.98.98-2.56,0-3.54s-2.56-.98-3.54,0l-49.48,49.48c-.98.98-.98,2.56,0,3.54ZM87.5,59c.64,0,1.28-.24,1.77-.73l17-17c.98-.98.98-2.56,0-3.54s-2.56-.98-3.54,0l-17,17c-.98.98-.98,2.56,0,3.54.49.49,1.13.73,1.77.73ZM157.77,70.23c-.98-.98-2.56-.98-3.54,0l-36,36c-.65.65-.82,1.55-.61,2.38l-29.24,29.24c-.49.49-.49,1.28,0,1.77.24.24.56.37.88.37s.64-.12.88-.37l29.24-29.25c.2.05.4.12.61.12.64,0,1.28-.24,1.77-.73l36-36c.98-.98.98-2.56,0-3.54ZM85.77,73.77l36-36c.98-.98.98-2.56,0-3.54s-2.56-.98-3.54,0l-36,36c-.98.98-.98,2.56,0,3.54.49.49,1.13.73,1.77.73s1.28-.24,1.77-.73ZM83.78,84.22c.49.49,1.13.73,1.77.73s1.28-.24,1.77-.73l44.91-44.91c.98-.98.98-2.56,0-3.54s-2.56-.98-3.54,0l-44.91,44.91c-.98.98-.98,2.56,0,3.54ZM54.25,91.17c-2.73,0-5.13-.39-7.22-1.18-2.09-.79-4.11-2.05-6.05-3.81-.34-.26-.6-.59-.78-.98-.19-.39-.28-.79-.28-1.2,0-.63.24-1.21.73-1.71s1.08-.76,1.79-.76c.56,0,1.06.19,1.51.56,1.46,1.38,3,2.43,4.62,3.13,1.62.71,3.48,1.06,5.57,1.06,1.57,0,3-.25,4.29-.76,1.29-.5,2.31-1.19,3.08-2.07.76-.88,1.15-1.89,1.15-3.05,0-1.42-.4-2.59-1.2-3.5s-1.93-1.68-3.39-2.3c-1.46-.62-3.17-1.15-5.15-1.6-1.79-.37-3.42-.86-4.87-1.46s-2.71-1.35-3.75-2.24c-1.04-.9-1.86-1.97-2.44-3.22-.58-1.25-.87-2.72-.87-4.4,0-2.2.58-4.12,1.74-5.74,1.16-1.62,2.75-2.88,4.79-3.78,2.03-.9,4.32-1.34,6.86-1.34,2.31,0,4.5.37,6.55,1.12,2.05.75,3.71,1.76,4.98,3.03.79.71,1.18,1.47,1.18,2.29,0,.6-.24,1.16-.73,1.68-.49.52-1.06.79-1.74.79-.49,0-.9-.15-1.23-.45-.63-.67-1.45-1.27-2.44-1.79-.99-.52-2.05-.95-3.19-1.29-1.14-.34-2.27-.5-3.39-.5-1.68,0-3.15.24-4.4.73-1.25.49-2.22,1.16-2.91,2.02-.69.86-1.04,1.87-1.04,3.03,0,1.34.39,2.46,1.18,3.33.78.88,1.85,1.59,3.19,2.13s2.86,1.02,4.54,1.43c1.94.45,3.7.95,5.29,1.51,1.59.56,2.94,1.28,4.06,2.16,1.12.88,1.98,1.98,2.58,3.3.6,1.33.9,2.94.9,4.84,0,2.17-.61,4.07-1.82,5.71-1.21,1.64-2.84,2.93-4.87,3.86-2.04.93-4.3,1.4-6.8,1.4ZM187.75,115.4c1.01,0,1.93.25,2.76.76.83.5,1.48,1.2,1.96,2.07.48.88.71,1.88.71,3s-.24,2.1-.71,3c-.47.89-1.13,1.61-1.96,2.14-.83.53-1.75.8-2.76.8h-5.69l.2-.36v7.05c0,.32-.1.59-.31.81s-.47.34-.78.34c-.34,0-.61-.11-.81-.34s-.31-.49-.31-.81v-17.3c0-.32.11-.59.34-.81.22-.22.49-.34.81-.34h6.55ZM187.75,124.98c.6,0,1.13-.17,1.61-.5s.85-.79,1.13-1.36c.28-.57.42-1.2.42-1.89s-.14-1.31-.42-1.86c-.28-.55-.66-.98-1.13-1.3-.48-.32-1.01-.48-1.61-.48h-5.69l.2-.34v8.01l-.2-.28h5.69ZM216.29,135c-.36,0-.66-.11-.92-.34-.26-.22-.39-.49-.39-.81v-17.3c0-.32.11-.59.34-.81.22-.22.49-.34.81-.34h7.73c1.04,0,1.99.24,2.83.71.84.48,1.51,1.13,2,1.97.49.84.74,1.79.74,2.86,0,.79-.15,1.52-.45,2.2s-.71,1.27-1.23,1.78c-.52.5-1.12.88-1.79,1.12l-.62-.42c.63.13,1.2.39,1.71.77s.91.87,1.23,1.46c.32.59.48,1.27.5,2.06.04.69.08,1.24.14,1.65.05.41.14.73.25.96.11.23.27.42.47.55.26.17.44.39.52.67s.03.55-.15.81c-.11.19-.27.31-.48.38-.21.07-.41.08-.62.06-.21-.03-.39-.09-.56-.18-.28-.17-.56-.42-.85-.74-.29-.33-.52-.8-.7-1.41-.18-.62-.27-1.46-.27-2.52,0-.58-.1-1.07-.29-1.47-.2-.4-.45-.72-.76-.95-.31-.23-.66-.4-1.05-.5-.39-.1-.79-.15-1.21-.15h-6.24l.34-.48v7.28c0,.32-.09.59-.28.81s-.44.34-.76.34ZM216.99,125.03h6.86c.54-.04,1.05-.22,1.53-.56s.86-.8,1.16-1.4.45-1.29.45-2.07c0-.97-.31-1.78-.94-2.44-.62-.65-1.4-.98-2.34-.98h-6.61l.22-.56v8.51l-.34-.5ZM267.45,125.2c0,1.44-.23,2.77-.7,3.99s-1.13,2.29-1.97,3.21c-.85.91-1.85,1.62-2.99,2.13-1.15.5-2.41.76-3.79.76s-2.62-.25-3.77-.76-2.15-1.21-3-2.13c-.85-.91-1.5-1.98-1.96-3.21s-.69-2.55-.69-3.99.23-2.77.69-3.99,1.11-2.29,1.96-3.21c.85-.91,1.85-1.62,3-2.13,1.15-.51,2.4-.76,3.77-.76s2.65.25,3.79.76c1.15.5,2.14,1.21,2.99,2.13.85.91,1.51,1.98,1.97,3.21s.7,2.55.7,3.99ZM265.01,125.2c0-1.51-.3-2.86-.89-4.04-.6-1.19-1.42-2.12-2.48-2.79s-2.27-1.01-3.65-1.01-2.57.34-3.62,1.01c-1.06.67-1.88,1.6-2.48,2.77s-.9,2.53-.9,4.06.3,2.86.9,4.05,1.42,2.11,2.48,2.79c1.05.67,2.26,1.01,3.62,1.01s2.6-.34,3.65-1.01,1.88-1.6,2.48-2.79c.6-1.19.89-2.53.89-4.05ZM294.52,115.4c1.38,0,2.59.26,3.62.77,1.04.51,1.9,1.23,2.59,2.14.69.91,1.21,1.96,1.55,3.15s.52,2.43.52,3.74c0,1.81-.31,3.46-.92,4.94s-1.54,2.66-2.76,3.54c-1.22.88-2.76,1.32-4.61,1.32h-6.97c-.32,0-.59-.11-.81-.34-.22-.22-.34-.49-.34-.81v-17.3c0-.32.11-.59.34-.81.22-.22.49-.34.81-.34h6.97ZM294.24,132.82c1.46,0,2.63-.35,3.53-1.04.89-.69,1.55-1.61,1.97-2.77.42-1.16.63-2.43.63-3.81,0-1.01-.12-1.97-.35-2.88-.23-.91-.6-1.73-1.09-2.44-.5-.71-1.13-1.27-1.9-1.68-.78-.41-1.71-.62-2.79-.62h-5.71l.22-.25v15.76l-.17-.28h5.66ZM336.38,115.37c.34,0,.61.11.81.34.21.22.31.5.31.81v11.12c0,1.44-.33,2.72-.99,3.86-.66,1.14-1.55,2.04-2.67,2.7-1.12.66-2.4.99-3.84.99s-2.69-.33-3.82-.99c-1.13-.66-2.03-1.56-2.69-2.7s-.99-2.43-.99-3.86v-11.12c0-.32.11-.59.34-.81.22-.22.51-.34.87-.34.3,0,.56.11.8.34.23.22.35.5.35.81v11.12c0,1.03.23,1.94.7,2.74s1.1,1.43,1.89,1.89c.79.46,1.65.69,2.56.69.97,0,1.86-.23,2.66-.69.8-.46,1.45-1.09,1.93-1.89.49-.8.73-1.72.73-2.74v-11.12c0-.32.1-.59.29-.81.2-.22.45-.34.77-.34ZM373.53,116.69c.32.17.5.42.56.76.06.34-.03.65-.25.95-.17.22-.38.35-.64.38-.26.03-.52-.02-.79-.15-.62-.37-1.28-.67-1.99-.88s-1.46-.32-2.24-.32c-1.1,0-2.11.19-3.02.56s-1.71.91-2.38,1.61c-.67.7-1.2,1.53-1.57,2.48-.38.95-.56,2-.56,3.13,0,1.23.2,2.33.59,3.3s.93,1.8,1.61,2.48,1.47,1.2,2.38,1.55c.9.36,1.89.53,2.95.53.77,0,1.5-.1,2.21-.31s1.37-.5,1.99-.9c.26-.13.53-.18.8-.14.27.04.49.17.66.39.24.3.33.61.27.94-.06.33-.25.57-.54.74-.47.28-1,.53-1.6.76-.6.22-1.22.4-1.86.53-.64.13-1.28.2-1.92.2-1.34,0-2.61-.23-3.81-.7-1.2-.47-2.25-1.13-3.18-2-.93-.87-1.65-1.92-2.17-3.16-.52-1.24-.79-2.65-.79-4.21,0-1.44.25-2.77.76-3.99s1.21-2.28,2.1-3.18c.9-.89,1.95-1.59,3.15-2.09,1.21-.49,2.52-.74,3.93-.74.97,0,1.91.13,2.83.38s1.76.62,2.52,1.11ZM395.49,117.56c-.32,0-.59-.1-.81-.31-.22-.21-.34-.47-.34-.78s.11-.57.34-.77c.22-.2.49-.29.81-.29h13.02c.32,0,.59.1.81.31.22.21.34.47.34.79s-.11.57-.34.77c-.22.2-.5.29-.81.29h-13.02ZM401.98,135c-.35,0-.64-.11-.85-.34s-.32-.49-.32-.81v-17.28h2.38v17.28c0,.32-.11.59-.34.81s-.51.34-.87.34ZM186.52,158.4c1.38,0,2.59.25,3.62.77,1.04.51,1.9,1.23,2.59,2.14.69.91,1.21,1.96,1.55,3.15.35,1.18.52,2.43.52,3.73,0,1.81-.31,3.46-.92,4.95s-1.54,2.66-2.76,3.54c-1.22.88-2.76,1.32-4.61,1.32h-6.97c-.32,0-.59-.11-.81-.34-.22-.22-.34-.49-.34-.81v-17.3c0-.32.11-.59.34-.81.22-.23.49-.34.81-.34h6.97ZM186.24,175.82c1.46,0,2.63-.34,3.53-1.04.89-.69,1.55-1.61,1.97-2.77.42-1.16.63-2.43.63-3.81,0-1.01-.12-1.97-.35-2.88-.23-.91-.6-1.73-1.09-2.43-.5-.71-1.13-1.27-1.9-1.68-.78-.41-1.71-.61-2.79-.61h-5.71l.22-.25v15.77l-.17-.28h5.66ZM217.6,158.4h9.97c.32,0,.59.11.81.32.22.21.34.48.34.8s-.11.57-.34.77c-.22.2-.49.3-.81.3h-9.02l.25-.48v7.05l-.28-.31h7.79c.32,0,.59.11.81.31.22.21.34.48.34.81,0,.32-.11.57-.34.77-.22.2-.49.29-.81.29h-7.7l.2-.28v7.25l-.17-.2h8.93c.32,0,.59.11.81.34.22.23.34.48.34.76,0,.32-.11.58-.34.78-.22.21-.49.31-.81.31h-9.97c-.32,0-.59-.11-.81-.34-.22-.22-.34-.49-.34-.81v-17.3c0-.32.11-.59.34-.81.22-.23.49-.34.81-.34ZM258.14,178.28c-1.38,0-2.59-.21-3.64-.62-1.04-.41-2.05-1.06-3.02-1.96-.13-.11-.24-.25-.32-.42s-.12-.34-.12-.53c0-.3.11-.57.32-.8.21-.23.48-.35.8-.35.26,0,.49.1.7.31.73.71,1.52,1.25,2.37,1.62.85.38,1.81.56,2.87.56.82,0,1.56-.13,2.21-.39.65-.26,1.18-.62,1.57-1.09s.59-1.01.59-1.62c0-.75-.21-1.36-.63-1.85s-1-.89-1.74-1.2c-.74-.32-1.59-.6-2.56-.84-.86-.21-1.65-.45-2.37-.74s-1.34-.65-1.88-1.09c-.53-.44-.94-.97-1.23-1.59s-.43-1.37-.43-2.23c0-1.06.28-1.99.84-2.79s1.34-1.41,2.34-1.86,2.14-.67,3.43-.67c1.14,0,2.22.19,3.23.56,1.02.38,1.83.89,2.45,1.54.37.35.56.71.56,1.06,0,.26-.12.51-.35.74-.23.23-.5.35-.8.35-.21,0-.39-.07-.56-.2-.32-.35-.72-.67-1.22-.95-.49-.28-1.03-.5-1.6-.67-.57-.17-1.14-.25-1.72-.25-.86,0-1.62.12-2.27.38-.65.25-1.16.6-1.53,1.05-.37.45-.55.99-.55,1.62,0,.71.21,1.29.62,1.75.41.46.96.83,1.65,1.12.69.29,1.46.55,2.3.77.91.23,1.76.48,2.53.77.78.29,1.44.65,2,1.08.56.43.99.98,1.3,1.64.31.66.46,1.48.46,2.45,0,1.03-.29,1.94-.87,2.74-.58.8-1.37,1.44-2.37,1.91-1,.46-2.12.7-3.38.7ZM295.16,176.85c0,.32-.12.59-.35.81-.23.23-.51.34-.83.34-.35,0-.64-.11-.85-.34-.21-.22-.32-.49-.32-.81v-17.3c0-.32.11-.59.34-.81.22-.23.51-.34.87-.34.32,0,.59.11.81.34.22.22.34.49.34.81v17.3ZM331.67,178.28c-1.44,0-2.77-.26-4-.77-1.23-.52-2.31-1.23-3.22-2.14-.91-.91-1.63-1.98-2.14-3.2s-.77-2.54-.77-3.96.26-2.74.77-3.96,1.23-2.29,2.14-3.21c.91-.91,1.99-1.62,3.22-2.14,1.23-.51,2.57-.77,4-.77.95,0,1.87.11,2.76.32.89.21,1.68.55,2.39,1,.19.09.33.23.42.41.09.18.14.35.14.52,0,.32-.11.59-.32.81-.21.23-.46.34-.74.34-.11,0-.22-.01-.34-.04-.11-.03-.21-.07-.31-.13-.58-.3-1.21-.54-1.88-.71-.67-.18-1.38-.27-2.13-.27-1.47,0-2.8.35-3.96,1.04-1.17.69-2.09,1.63-2.76,2.81-.67,1.19-1.01,2.52-1.01,3.99s.34,2.8,1.01,3.99c.67,1.18,1.59,2.12,2.76,2.81,1.17.69,2.49,1.04,3.96,1.04.75,0,1.51-.1,2.29-.3.79-.21,1.46-.47,2.02-.79l-.17.67v-5.88l.42.39h-4.26c-.32,0-.59-.11-.81-.32-.22-.21-.34-.48-.34-.8s.11-.61.34-.82c.22-.21.49-.32.81-.32h5.1c.32,0,.58.11.8.34.21.23.32.5.32.81v6.47c0,.22-.05.43-.15.6-.1.18-.24.32-.41.43-.84.54-1.77.97-2.79,1.29s-2.08.48-3.18.48ZM372.75,158.4c.32,0,.57.1.76.3.19.21.28.46.28.76v17.36c0,.36-.11.64-.34.86s-.5.32-.84.32c-.15,0-.31-.03-.48-.1s-.3-.15-.39-.27l-11.98-15.85.56-.31v15.48c0,.3-.1.55-.29.74s-.45.29-.77.29-.57-.1-.76-.29c-.19-.2-.28-.44-.28-.74v-17.41c0-.36.11-.64.34-.84.22-.2.49-.3.79-.3.17,0,.34.03.52.1s.31.17.41.32l11.79,15.6-.34.45v-15.4c0-.3.1-.55.29-.76.2-.2.44-.3.74-.3ZM197.06,85.68c.71,0,1.3.23,1.79.7.48.47.73,1.06.73,1.76s-.24,1.3-.73,1.77c-.49.47-1.08.7-1.79.7h-19.1c-.75,0-1.36-.24-1.85-.73-.48-.48-.73-1.1-.73-1.85v-34.05c0-.75.25-1.36.76-1.85.5-.48,1.15-.73,1.93-.73.71,0,1.31.24,1.82.73.5.49.76,1.1.76,1.85v32.65l-1.12-.95h17.53ZM223.61,88.04c0,.75-.26,1.36-.79,1.85-.52.49-1.14.73-1.85.73-.78,0-1.42-.24-1.9-.73-.48-.48-.73-1.1-.73-1.85v-34.05c0-.75.25-1.36.76-1.85.5-.48,1.15-.73,1.93-.73.71,0,1.31.24,1.82.73.5.49.76,1.1.76,1.85v34.05ZM261.04,51.41c2.72,0,5.12.51,7.2,1.54,2.07,1.03,3.81,2.46,5.21,4.28,1.4,1.83,2.45,3.92,3.14,6.27.69,2.35,1.04,4.85,1.04,7.5,0,3.62-.62,6.92-1.88,9.88-1.25,2.97-3.1,5.33-5.54,7.08-2.45,1.76-5.5,2.63-9.16,2.63h-13.83c-.71,0-1.31-.24-1.82-.73-.51-.48-.76-1.1-.76-1.85v-34.05c0-.75.25-1.36.76-1.85.5-.48,1.11-.73,1.82-.73h13.83ZM260.48,85.74c2.76,0,5-.67,6.72-2.02s2.98-3.12,3.78-5.35c.8-2.22,1.2-4.68,1.2-7.36,0-1.94-.22-3.8-.67-5.57s-1.15-3.35-2.1-4.73c-.95-1.38-2.17-2.46-3.64-3.25-1.47-.78-3.24-1.18-5.29-1.18h-11.03l.45-.5v30.52l-.34-.56h10.92Z"/></svg>