<svg xmlns="http://www.w3.org/2000/svg" viewBox="0 0 32 32">
  <defs>
    <clipPath id="circle">
      <circle cx="16" cy="16" r="14"/>
    </clipPath>
  </defs>
  <g clip-path="url(#circle)">
    <rect fill="#FFFFFF" x="-8" y="-4" width="2.5" height="40" transform="rotate(45 16 16)"/>
    <rect fill="#FFFFFF" x="-3" y="-4" width="2.5" height="40" transform="rotate(45 16 16)"/>
    <rect fill="#FFFFFF" x="2" y="-4" width="2.5" height="40" transform="rotate(45 16 16)"/>
    <rect fill="#FFFFFF" x="7" y="-4" width="2.5" height="40" transform="rotate(45 16 16)"/>
    <rect fill="#FFFFFF" x="12" y="-4" width="2.5" height="40" transform="rotate(45 16 16)"/>
    <rect fill="#FFFFFF" x="17" y="-4" width="2.5" height="40" transform="rotate(45 16 16)"/>
    <rect fill="#FFFFFF" x="22" y="-4" width="2.5" height="40" transform="rotate(45 16 16)"/>
    <rect fill="#FFFFFF" x="27" y="-4" width="2.5" height="40" transform="rotate(45 16 16)"/>
    <rect fill="#FFFFFF" x="32" y="-4" width="2.5" height="40" transform="rotate(45 16 16)"/>
    <rect fill="#FFFFFF" x="37" y="-4" width="2.5" height="40" transform="rotate(45 16 16)"/>
  </g>
</svg>
