<?xml version="1.0" encoding="UTF-8"?>
<svg id="Layer_1" xmlns="http://www.w3.org/2000/svg" viewBox="0 0 59.34 59.34">
  <defs>
    <style>
      .cls-1 {
        fill: #438dcc;
      }
    </style>
  </defs>
  <path class="cls-1" d="M29.67,59.34c-.49,0-.99-.19-1.36-.56-.75-.75-.75-1.97,0-2.72l27.74-27.74c.75-.75,1.97-.75,2.72,0s.75,1.97,0,2.72l-27.74,27.74c-.38.38-.87.56-1.36.56ZM21.61,58.15c-.49,0-.99-.19-1.36-.56-.75-.75-.75-1.97,0-2.72L54.86,20.25c.75-.75,1.97-.75,2.72,0s.75,1.97,0,2.72L22.97,57.59c-.38.38-.87.56-1.36.56ZM41.62,56.64c-.49,0-.99-.19-1.36-.56-.75-.75-.75-1.97,0-2.72l13.1-13.1c.75-.75,1.97-.75,2.72,0s.75,1.97,0,2.72l-13.1,13.1c-.38.38-.87.56-1.36.56ZM15.23,55.29c-.49,0-.99-.19-1.36-.56-.75-.75-.75-1.97,0-2.72L52,13.87c.75-.75,1.97-.75,2.72,0s.75,1.97,0,2.72L16.59,54.72c-.38.38-.87.56-1.36.56ZM10.05,51.21c-.49,0-.99-.19-1.36-.56-.75-.75-.75-1.97,0-2.72L47.93,8.69c.75-.75,1.97-.75,2.72,0s.75,1.97,0,2.72L11.41,50.65c-.38.38-.87.56-1.36.56ZM5.98,46.04c-.49,0-.99-.19-1.36-.56-.75-.75-.75-1.97,0-2.72L42.75,4.62c.75-.75,1.97-.75,2.72,0s.75,1.97,0,2.72L7.34,45.48c-.38.38-.87.56-1.36.56ZM3.12,39.66c-.49,0-.99-.19-1.36-.56-.75-.75-.75-1.97,0-2.72L36.37,1.75c.75-.75,1.97-.75,2.72,0s.75,1.97,0,2.72L4.48,39.09c-.38.38-.87.56-1.36.56ZM1.93,31.6c-.49,0-.99-.19-1.36-.56-.75-.75-.75-1.97,0-2.72L28.31.56c.75-.75,1.97-.75,2.72,0s.75,1.97,0,2.72L3.29,31.03c-.38.38-.87.56-1.36.56ZM4.62,19.65c-.49,0-.99-.19-1.36-.56-.75-.75-.75-1.97,0-2.72L16.36,3.26c.75-.75,1.97-.75,2.72,0s.75,1.97,0,2.72l-13.1,13.1c-.38.38-.87.56-1.36.56Z"/>
</svg>