<svg id="Layer_1" xmlns="http://www.w3.org/2000/svg" width="864" height="144" viewBox="0 0 864 144"><path fill="#fff" d="M120,110.5c-.64,0-1.28-.24-1.77-.73-.98-.98-.98-2.56,0-3.54l36-36c.98-.98,2.56-.98,3.54,0s.98,2.56,0,3.54l-36,36c-.49.49-1.13.73-1.77.73ZM109.54,108.96c-.64,0-1.28-.24-1.77-.73-.98-.98-.98-2.56,0-3.54l44.91-44.91c.98-.98,2.56-.98,3.54,0s.98,2.56,0,3.54l-44.91,44.91c-.49.49-1.13.73-1.77.73ZM135.5,107c-.64,0-1.28-.24-1.77-.73-.98-.98-.98-2.56,0-3.54l17-17c.98-.98,2.56-.98,3.54,0s.98,2.56,0,3.54l-17,17c-.49.49-1.13.73-1.77.73ZM101.26,105.24c-.64,0-1.28-.24-1.77-.73-.98-.98-.98-2.56,0-3.54l49.48-49.48c.98-.98,2.56-.98,3.54,0s.98,2.56,0,3.54l-49.48,49.48c-.49.49-1.13.73-1.77.73ZM94.54,99.96c-.64,0-1.28-.24-1.77-.73-.98-.98-.98-2.56,0-3.54l50.91-50.91c.98-.98,2.56-.98,3.54,0s.98,2.56,0,3.54l-50.91,50.91c-.49.49-1.13.73-1.77.73ZM89.26,93.24c-.64,0-1.28-.24-1.77-.73-.98-.98-.98-2.56,0-3.54l49.48-49.48c.98-.98,2.56-.98,3.54,0s.98,2.56,0,3.54l-49.48,49.48c-.49.49-1.13.73-1.77.73ZM85.54,84.96c-.64,0-1.28-.24-1.77-.73-.98-.98-.98-2.56,0-3.54l44.91-44.91c.98-.98,2.56-.98,3.54,0s.98,2.56,0,3.54l-44.91,44.91c-.49.49-1.13.73-1.77.73ZM84,74.5c-.64,0-1.28-.24-1.77-.73-.98-.98-.98-2.56,0-3.54l36-36c.98-.98,2.56-.98,3.54,0s.98,2.56,0,3.54l-36,36c-.49.49-1.13.73-1.77.73ZM87.5,59c-.64,0-1.28-.24-1.77-.73-.98-.98-.98-2.56,0-3.54l17-17c.98-.98,2.56-.98,3.54,0s.98,2.56,0,3.54l-17,17c-.49.49-1.13.73-1.77.73Z"/><path d="M54.25,91.17c-2.73,0-5.13-.39-7.22-1.18-2.09-.79-4.11-2.05-6.05-3.81-.34-.26-.6-.59-.78-.98-.19-.39-.28-.79-.28-1.2,0-.63.24-1.21.73-1.71s1.08-.76,1.79-.76c.56,0,1.06.19,1.51.56,1.46,1.38,3,2.43,4.62,3.13,1.62.71,3.48,1.06,5.57,1.06,1.57,0,3-.25,4.29-.76,1.29-.5,2.31-1.19,3.08-2.07.76-.88,1.15-1.89,1.15-3.05,0-1.42-.4-2.59-1.2-3.5s-1.93-1.68-3.39-2.3c-1.46-.62-3.17-1.15-5.15-1.6-1.79-.37-3.42-.86-4.87-1.46s-2.71-1.35-3.75-2.24c-1.04-.9-1.86-1.97-2.44-3.22-.58-1.25-.87-2.72-.87-4.4,0-2.2.58-4.12,1.74-5.74,1.16-1.62,2.75-2.88,4.79-3.78,2.03-.9,4.32-1.34,6.86-1.34,2.31,0,4.5.37,6.55,1.12,2.05.75,3.71,1.76,4.98,3.03.79.71,1.18,1.47,1.18,2.29,0,.6-.24,1.16-.73,1.68-.49.52-1.06.79-1.74.79-.49,0-.9-.15-1.23-.45-.63-.67-1.45-1.27-2.44-1.79-.99-.52-2.05-.95-3.19-1.29-1.14-.34-2.27-.5-3.39-.5-1.68,0-3.15.24-4.4.73-1.25.49-2.22,1.16-2.91,2.02-.69.86-1.04,1.87-1.04,3.03,0,1.34.39,2.46,1.18,3.33.78.88,1.85,1.59,3.19,2.13s2.86,1.02,4.54,1.43c1.94.45,3.7.95,5.29,1.51,1.59.56,2.94,1.28,4.06,2.16,1.12.88,1.98,1.98,2.58,3.3.6,1.33.9,2.94.9,4.84,0,2.17-.61,4.07-1.82,5.71-1.21,1.64-2.84,2.93-4.87,3.86-2.04.93-4.3,1.4-6.8,1.4ZM197.06,85.68c.71,0,1.3.23,1.79.7.48.47.73,1.06.73,1.76s-.24,1.3-.73,1.77c-.49.47-1.08.7-1.79.7h-19.1c-.75,0-1.36-.24-1.85-.73-.48-.48-.73-1.1-.73-1.85v-34.05c0-.75.25-1.36.76-1.85.5-.48,1.15-.73,1.93-.73.71,0,1.31.24,1.82.73.5.49.76,1.1.76,1.85v32.65l-1.12-.95h17.53ZM223.61,88.04c0,.75-.26,1.36-.79,1.85-.52.49-1.14.73-1.85.73-.78,0-1.42-.24-1.9-.73-.48-.48-.73-1.1-.73-1.85v-34.05c0-.75.25-1.36.76-1.85.5-.48,1.15-.73,1.93-.73.71,0,1.31.24,1.82.73.5.49.76,1.1.76,1.85v34.05ZM261.04,51.41c2.72,0,5.12.51,7.2,1.54,2.07,1.03,3.81,2.46,5.21,4.28,1.4,1.83,2.45,3.92,3.14,6.27.69,2.35,1.04,4.85,1.04,7.5,0,3.62-.62,6.92-1.88,9.88-1.25,2.97-3.1,5.33-5.54,7.08-2.45,1.76-5.5,2.63-9.16,2.63h-13.83c-.71,0-1.31-.24-1.82-.73-.51-.48-.76-1.1-.76-1.85v-34.05c0-.75.25-1.36.76-1.85.5-.48,1.11-.73,1.82-.73h13.83ZM260.48,85.74c2.76,0,5-.67,6.72-2.02s2.98-3.12,3.78-5.35c.8-2.22,1.2-4.68,1.2-7.36,0-1.94-.22-3.8-.67-5.57s-1.15-3.35-2.1-4.73c-.95-1.38-2.17-2.46-3.64-3.25-1.47-.78-3.24-1.18-5.29-1.18h-11.03l.45-.5v30.52l-.34-.56h10.92ZM328.22,50.8c2.09,0,3.94.47,5.54,1.4,1.61.93,2.86,2.22,3.75,3.87s1.34,3.53,1.34,5.66-.45,4.05-1.34,5.77-2.15,3.07-3.75,4.06c-1.61.99-3.45,1.48-5.54,1.48h-12.21l.28-.5v16.07c0,.37-.14.7-.42.98-.28.28-.62.42-1.04.42-.45,0-.79-.14-1.04-.42-.24-.28-.37-.61-.37-.98v-36.4c0-.37.14-.7.42-.98s.61-.42.98-.42h13.38ZM328.22,70.23c1.57,0,2.92-.37,4.06-1.12,1.14-.75,2.04-1.76,2.69-3.05.65-1.29.98-2.73.98-4.34s-.33-3.06-.98-4.26c-.65-1.2-1.55-2.15-2.69-2.86-1.14-.71-2.49-1.06-4.06-1.06h-12.15l.22-.34v17.3l-.28-.28h12.21ZM351.62,90c-.45,0-.81-.14-1.09-.42-.28-.28-.42-.61-.42-.98v-36.4c0-.37.14-.7.42-.98s.61-.42.98-.42h14.95c2.17,0,4.08.45,5.74,1.34,1.66.89,2.97,2.13,3.92,3.7.95,1.57,1.43,3.34,1.43,5.32,0,1.68-.31,3.21-.92,4.59-.62,1.38-1.46,2.54-2.55,3.47-1.08.93-2.32,1.62-3.7,2.07l-2.24-.56c1.42.07,2.76.49,4.03,1.26s2.3,1.85,3.11,3.25,1.21,3.09,1.21,5.07c0,1.72.08,3.03.25,3.95.17.92.38,1.61.64,2.07s.58.83.95,1.09c.3.19.51.43.64.73.13.3.12.63-.03,1.01-.11.26-.28.46-.5.59-.22.13-.46.2-.7.2s-.5-.05-.76-.17c-.52-.3-1.05-.76-1.57-1.37-.52-.62-.96-1.54-1.32-2.77-.36-1.23-.53-2.97-.53-5.21,0-1.61-.24-2.9-.73-3.89-.49-.99-1.13-1.75-1.93-2.29s-1.65-.9-2.55-1.09c-.89-.19-1.75-.28-2.58-.28h-13.27l.5-.73v16.46c0,.37-.13.7-.39.98s-.6.42-1.01.42ZM352.46,70.18h14.22c1.38-.11,2.67-.53,3.86-1.26s2.17-1.74,2.91-3.05c.75-1.3,1.12-2.84,1.12-4.59,0-2.2-.77-4.04-2.3-5.52s-3.56-2.21-6.1-2.21h-13.5l.34-.56v17.92l-.56-.73ZM425.6,70.4c0,2.95-.46,5.66-1.37,8.12-.92,2.46-2.21,4.59-3.89,6.38-1.68,1.79-3.67,3.18-5.96,4.17-2.3.99-4.81,1.48-7.53,1.48s-5.23-.5-7.5-1.48-4.26-2.38-5.94-4.17c-1.68-1.79-2.98-3.92-3.89-6.38-.91-2.46-1.37-5.17-1.37-8.12s.46-5.66,1.37-8.12c.92-2.46,2.21-4.59,3.89-6.38,1.68-1.79,3.66-3.18,5.94-4.17,2.28-.99,4.78-1.48,7.5-1.48s5.24.49,7.53,1.48c2.29.99,4.28,2.38,5.96,4.17,1.68,1.79,2.98,3.92,3.89,6.38.91,2.46,1.37,5.17,1.37,8.12ZM422.63,70.4c0-3.44-.67-6.46-2.02-9.07s-3.2-4.65-5.57-6.1c-2.37-1.46-5.11-2.19-8.21-2.19s-5.78.73-8.15,2.19c-2.37,1.46-4.23,3.49-5.57,6.1s-2.02,5.64-2.02,9.07.67,6.46,2.02,9.07,3.2,4.65,5.57,6.1c2.37,1.46,5.09,2.18,8.15,2.18s5.83-.73,8.21-2.18c2.37-1.46,4.23-3.49,5.57-6.1s2.02-5.64,2.02-9.07ZM452.93,50.8c2.8,0,5.23.53,7.28,1.6s3.75,2.51,5.1,4.34c1.34,1.83,2.34,3.92,3,6.27.65,2.35.98,4.82.98,7.39,0,3.58-.59,6.86-1.76,9.83-1.18,2.97-2.96,5.34-5.35,7.11-2.39,1.77-5.47,2.66-9.24,2.66h-14.39c-.37,0-.7-.14-.98-.42-.28-.28-.42-.61-.42-.98v-36.4c0-.37.14-.7.42-.98s.61-.42.98-.42h14.39ZM452.37,87.26c3.32,0,6-.76,8.04-2.27s3.53-3.55,4.48-6.1c.95-2.56,1.43-5.38,1.43-8.48,0-2.2-.26-4.32-.78-6.36-.52-2.04-1.34-3.84-2.46-5.4-1.12-1.57-2.56-2.81-4.31-3.72-1.76-.91-3.88-1.37-6.38-1.37h-12.66l.34-.45v34.66l-.34-.5h12.66ZM508.48,50.8c.41,0,.75.14,1.01.42.26.28.39.61.39.98v23.69c0,2.72-.65,5.19-1.96,7.39-1.31,2.2-3.05,3.96-5.24,5.27s-4.64,1.96-7.36,1.96-5.13-.65-7.34-1.96c-2.2-1.31-3.96-3.06-5.26-5.27-1.31-2.2-1.96-4.67-1.96-7.39v-23.69c0-.37.13-.7.39-.98.26-.28.62-.42,1.06-.42.41,0,.76.14,1.04.42.28.28.42.61.42.98v23.69c0,2.2.52,4.2,1.57,5.99,1.04,1.79,2.46,3.21,4.26,4.26,1.79,1.04,3.73,1.57,5.82,1.57s4.13-.52,5.91-1.57c1.77-1.04,3.2-2.46,4.28-4.26,1.08-1.79,1.62-3.79,1.62-5.99v-23.69c0-.37.12-.7.36-.98.24-.28.57-.42.98-.42ZM552.89,53.88c.41.26.63.58.67.95.04.37-.06.75-.28,1.12-.22.3-.51.47-.87.5-.36.04-.68-.04-.98-.22-1.49-1.01-3.11-1.8-4.84-2.38-1.74-.58-3.59-.87-5.57-.87-2.35,0-4.53.42-6.52,1.26-2,.84-3.75,2.04-5.26,3.58s-2.7,3.39-3.56,5.52c-.86,2.13-1.29,4.48-1.29,7.06s.43,4.98,1.29,7.11c.86,2.13,2.04,3.97,3.56,5.52,1.51,1.55,3.28,2.74,5.29,3.58s4.18,1.26,6.5,1.26c1.94,0,3.78-.29,5.52-.87,1.74-.58,3.35-1.35,4.84-2.32.34-.22.68-.32,1.04-.28.35.04.64.22.87.56.26.34.37.7.31,1.09-.06.39-.27.7-.64.92-.89.6-2.01,1.18-3.33,1.74-1.32.56-2.71,1.01-4.17,1.34-1.46.34-2.93.5-4.42.5-2.69,0-5.21-.5-7.56-1.48-2.35-.99-4.43-2.38-6.24-4.17-1.81-1.79-3.23-3.92-4.26-6.38-1.03-2.46-1.54-5.17-1.54-8.12s.5-5.59,1.51-8.04c1.01-2.44,2.42-4.56,4.23-6.36,1.81-1.79,3.89-3.19,6.24-4.2s4.89-1.51,7.62-1.51c2.2,0,4.32.32,6.36.95s3.87,1.51,5.52,2.63ZM562.24,53.49c-.41,0-.76-.13-1.04-.39-.28-.26-.42-.58-.42-.95s.14-.69.42-.95c.28-.26.62-.39,1.04-.39h26.88c.41,0,.75.13,1.01.39.26.26.39.58.39.95,0,.41-.13.74-.39.98-.26.24-.6.37-1.01.37h-26.88ZM575.68,90c-.45,0-.8-.14-1.06-.42-.26-.28-.39-.61-.39-.98v-36.23h2.91v36.23c0,.37-.15.7-.45.98-.3.28-.64.42-1.01.42ZM635.6,50.8c2.8,0,5.23.53,7.28,1.6s3.75,2.51,5.1,4.34c1.34,1.83,2.34,3.92,3,6.27.65,2.35.98,4.82.98,7.39,0,3.58-.59,6.86-1.76,9.83-1.18,2.97-2.96,5.34-5.35,7.11-2.39,1.77-5.47,2.66-9.24,2.66h-14.39c-.37,0-.7-.14-.98-.42-.28-.28-.42-.61-.42-.98v-36.4c0-.37.14-.7.42-.98s.61-.42.98-.42h14.39ZM635.04,87.26c3.32,0,6-.76,8.04-2.27s3.53-3.55,4.48-6.1c.95-2.56,1.43-5.38,1.43-8.48,0-2.2-.26-4.32-.78-6.36-.52-2.04-1.34-3.84-2.46-5.4-1.12-1.57-2.56-2.81-4.31-3.72-1.76-.91-3.88-1.37-6.38-1.37h-12.66l.34-.45v34.66l-.34-.5h12.66ZM664.83,50.8h20.83c.37,0,.7.14.98.42s.42.61.42.98c0,.41-.14.74-.42.98-.28.24-.61.37-.98.37h-19.88l.56-.95v16.58l-.62-.73h17.42c.37,0,.7.13.98.39.28.26.42.6.42,1.01s-.14.74-.42.98c-.28.24-.61.36-.98.36h-17.3l.5-.56v16.91l-.22-.28h19.54c.37,0,.7.13.98.39.28.26.42.58.42.95,0,.41-.14.75-.42,1.01-.28.26-.61.39-.98.39h-20.83c-.37,0-.7-.14-.98-.42-.28-.28-.42-.61-.42-.98v-36.4c0-.37.14-.7.42-.98s.61-.42.98-.42ZM709.12,90.56c-2.88.04-5.36-.43-7.45-1.4-2.09-.97-4.11-2.41-6.05-4.31-.11-.11-.22-.26-.31-.45-.09-.19-.14-.41-.14-.67,0-.34.15-.67.45-1.01.3-.34.63-.5,1.01-.5s.73.17,1.06.5c1.49,1.68,3.2,2.95,5.12,3.81,1.92.86,3.97,1.29,6.13,1.29,1.83,0,3.47-.3,4.93-.9,1.46-.6,2.6-1.44,3.44-2.52s1.26-2.35,1.26-3.81c-.04-1.83-.54-3.29-1.51-4.4-.97-1.1-2.24-2.02-3.81-2.74-1.57-.73-3.25-1.39-5.04-1.99-1.46-.49-2.87-1.01-4.23-1.57-1.36-.56-2.59-1.25-3.67-2.07-1.08-.82-1.93-1.85-2.55-3.08-.62-1.23-.92-2.72-.92-4.48,0-1.9.51-3.61,1.54-5.12,1.03-1.51,2.48-2.71,4.37-3.58s4.1-1.32,6.64-1.32c2.16,0,4.26.38,6.27,1.15s3.62,1.88,4.82,3.33c.45.56.67,1.03.67,1.4,0,.34-.16.66-.48.98-.32.32-.68.48-1.09.48-.34,0-.62-.11-.84-.34-.67-.86-1.48-1.61-2.44-2.24-.95-.63-2.03-1.13-3.22-1.48-1.2-.35-2.43-.53-3.7-.53-1.83,0-3.46.29-4.9.87-1.44.58-2.59,1.4-3.44,2.46-.86,1.06-1.29,2.34-1.29,3.84,0,1.64.48,3,1.43,4.06.95,1.06,2.18,1.94,3.67,2.63,1.49.69,3.04,1.32,4.65,1.88,1.53.48,3.02,1.01,4.45,1.57,1.44.56,2.72,1.28,3.86,2.16,1.14.88,2.04,1.97,2.69,3.28s.98,2.93.98,4.87c0,1.83-.51,3.49-1.54,4.98-1.03,1.49-2.46,2.69-4.31,3.58s-4.02,1.36-6.52,1.4ZM736,88.54c-.04.41-.2.76-.48,1.04-.28.28-.61.42-.98.42-.45,0-.8-.14-1.06-.42-.26-.28-.39-.62-.39-1.04v-36.29c0-.41.14-.76.42-1.04s.62-.42,1.04-.42.76.14,1.04.42c.28.28.42.62.42,1.04v36.29ZM767.64,90.56c-2.88,0-5.54-.5-7.98-1.48s-4.58-2.4-6.41-4.23-3.24-3.97-4.23-6.41c-.99-2.44-1.48-5.12-1.48-8.04s.49-5.59,1.48-8.04c.99-2.44,2.4-4.58,4.23-6.41,1.83-1.83,3.97-3.24,6.41-4.23,2.45-.99,5.11-1.48,7.98-1.48,2.02,0,3.97.24,5.85.73,1.88.48,3.56,1.21,5.01,2.18.26.15.44.33.53.53.09.21.14.42.14.64,0,.45-.15.8-.45,1.06s-.6.39-.9.39c-.15,0-.3-.04-.45-.11-.15-.07-.28-.13-.39-.17-1.34-.75-2.8-1.34-4.37-1.79-1.57-.45-3.23-.67-4.98-.67-3.32,0-6.27.76-8.85,2.27s-4.6,3.56-6.08,6.16c-1.47,2.59-2.21,5.57-2.21,8.93s.74,6.3,2.21,8.93,3.5,4.7,6.08,6.19c2.58,1.49,5.53,2.24,8.85,2.24,1.79,0,3.56-.27,5.32-.81,1.75-.54,3.29-1.24,4.59-2.1l-.28,1.12v-13.44l.84.73h-10.3c-.37,0-.7-.14-.98-.42-.28-.28-.42-.61-.42-.98,0-.41.14-.75.42-1.01.28-.26.61-.39.98-.39h10.98c.41,0,.75.14,1.01.42.26.28.39.61.39.98v13.78c0,.22-.06.45-.17.67-.11.22-.28.43-.5.62-1.64,1.08-3.48,1.96-5.52,2.63s-4.15,1.01-6.36,1.01ZM820.95,50.8c.41,0,.73.13.95.39.22.26.34.58.34.95v36.34c0,.48-.14.86-.42,1.12-.28.26-.63.39-1.04.39-.19,0-.38-.05-.59-.14-.21-.09-.38-.21-.53-.36l-25.48-34.55.9-.45v34.27c0,.34-.13.63-.39.87s-.58.36-.95.36c-.41,0-.73-.12-.95-.36-.22-.24-.34-.53-.34-.87v-36.57c0-.48.14-.84.42-1.06.28-.22.57-.34.87-.34.22,0,.43.04.62.11.19.07.35.21.5.39l25.31,34.27-.56,1.06v-34.5c0-.37.14-.69.42-.95.28-.26.59-.39.92-.39Z"/></svg>